<?xml version="1.0" encoding="UTF-8" standalone="no"?>
<!-- Created with Inkscape (http://www.inkscape.org/) -->

<svg
   xmlns:dc="http://purl.org/dc/elements/1.1/"
   xmlns:cc="http://creativecommons.org/ns#"
   xmlns:rdf="http://www.w3.org/1999/02/22-rdf-syntax-ns#"
   xmlns:svg="http://www.w3.org/2000/svg"
   xmlns="http://www.w3.org/2000/svg"
   xmlns:sodipodi="http://sodipodi.sourceforge.net/DTD/sodipodi-0.dtd"
   xmlns:inkscape="http://www.inkscape.org/namespaces/inkscape"
   width="232.45534mm"
   height="86.178574mm"
   viewBox="0 0 232.45534 86.178575"
   version="1.1"
   id="svg8650"
   inkscape:version="0.92.3 (2405546, 2018-03-11)"
   sodipodi:docname="b2.svg">
  <defs
     id="defs8644">
    <inkscape:perspective
       sodipodi:type="inkscape:persp3d"
       inkscape:vp_x="-367.23986 : 110.97858 : 1"
       inkscape:vp_y="-999.99635 : 2.6971306 : 0"
       inkscape:vp_z="-366.67346 : 320.97783 : 1"
       inkscape:persp3d-origin="-317.45684 : 215.84471 : 1"
       id="perspective9211" />
    <clipPath
       clipPathUnits="userSpaceOnUse"
       id="clipPath2026">
      <path
         d="M 0,0 H 5000 V 5000 H 0 Z"
         id="path2024"
         inkscape:connector-curvature="0" />
    </clipPath>
    <clipPath
       clipPathUnits="userSpaceOnUse"
       id="clipPath1938">
      <path
         d="m 4761.79,2486.29 c -55.66,0 -111.32,21.24 -153.78,63.7 -18.13,18.13 -32.39,38.66 -42.78,60.57 -38.29,80.75 -24.03,180.21 42.78,247.01 l 116.67,116.67 c 84.93,84.94 84.93,222.65 0,307.58 -42.47,42.47 -98.13,63.7 -153.8,63.7 -55.66,0 -111.32,-21.23 -153.78,-63.7 l -604.55,-604.55 c -42.47,-42.47 -98.13,-63.7 -153.79,-63.7 -55.65,0 -111.31,21.23 -153.78,63.7 -84.94,84.94 -84.94,222.64 0,307.58 l 894.52,894.52 h 579.83 v 4.25 c 6.6,-8.98 13.49,-17.71 20.67,-26.21 v -1223 l -23.85,-23.85 -60.57,-60.57 c -42.47,-42.46 -98.13,-63.7 -153.79,-63.7 M 3393.61,3578.72 c -55.66,0 -111.32,21.24 -153.79,63.7 -64.05,64.06 -79.8,158.13 -47.23,236.95 h 591.76 L 3547.4,3642.42 c -42.46,-42.46 -98.13,-63.7 -153.79,-63.7 M 5000,3906.22 c -7.3,10.19 -14.2,20.7 -20.67,31.48 v 478 c 6.47,10.78 13.37,21.29 20.67,31.48 v -540.96 m -20.67,563.56 V 5000 H 5000 v -504.02 c -7.18,-8.5 -14.07,-17.23 -20.67,-26.2"
         id="path1936"
         inkscape:connector-curvature="0" />
    </clipPath>
    <linearGradient
       x1="0"
       y1="0"
       x2="1"
       y2="0"
       gradientUnits="userSpaceOnUse"
       gradientTransform="matrix(2735.98,2735.98,2735.98,-2735.98,3504.98,2677.27)"
       spreadMethod="pad"
       id="linearGradient1944">
      <stop
         style="stop-opacity:1;stop-color:#ee2481"
         offset="0"
         id="stop1940" />
      <stop
         style="stop-opacity:1;stop-color:#f57f33"
         offset="1"
         id="stop1942" />
    </linearGradient>
    <clipPath
       clipPathUnits="userSpaceOnUse"
       id="clipPath2014">
      <path
         d="M 4979.33,3879.37 H 4399.5 l 140.31,140.31 c 78.46,78.46 84.45,201.95 17.95,287.28 -5.49,7.04 -11.47,13.83 -17.95,20.3 -42.46,42.47 -98.12,63.7 -153.78,63.7 -55.66,0 -111.32,-21.23 -153.79,-63.7 l -447.89,-447.89 h -591.76 c 10.61,25.68 26.36,49.75 47.23,70.63 l 1050.01,1050 h 316.23 c -0.24,-6.7 2.19,-13.48 7.31,-18.59 4.88,-4.89 11.28,-7.33 17.68,-7.33 6.39,0 12.79,2.44 17.67,7.33 5.12,5.11 7.55,11.89 7.31,18.59 h 323.3 v -530.22 c -60.31,-82.01 -95.94,-183.36 -95.94,-293.08 0,-109.73 35.63,-211.07 95.94,-293.08 v -4.25 m -1266.11,226.9 c -6.58,0 -13.02,-2.67 -17.68,-7.33 -4.65,-4.65 -7.32,-11.09 -7.32,-17.67 0,-6.59 2.67,-13.03 7.32,-17.68 4.66,-4.66 11.1,-7.33 17.68,-7.33 6.58,0 13.03,2.67 17.68,7.33 4.65,4.65 7.32,11.09 7.32,17.68 0,6.58 -2.67,13.02 -7.32,17.67 -4.65,4.66 -11.1,7.33 -17.68,7.33 m 114.73,114.72 c -6.4,0 -12.8,-2.44 -17.68,-7.32 -9.76,-9.76 -9.76,-25.59 0,-35.36 4.88,-4.88 11.28,-7.32 17.68,-7.32 6.4,0 12.8,2.44 17.68,7.32 9.76,9.77 9.76,25.6 0,35.36 -4.88,4.88 -11.28,7.32 -17.68,7.32 m 114.73,114.73 c -6.4,0 -12.8,-2.44 -17.68,-7.32 -9.76,-9.77 -9.76,-25.6 0,-35.36 4.88,-4.88 11.28,-7.32 17.68,-7.32 6.4,0 12.79,2.44 17.67,7.32 9.77,9.76 9.77,25.59 0,35.36 -4.88,4.88 -11.27,7.32 -17.67,7.32 m 114.72,114.73 c -6.39,0 -12.79,-2.45 -17.67,-7.32 -9.77,-9.77 -9.77,-25.6 0,-35.36 4.88,-4.88 11.28,-7.32 17.67,-7.32 6.4,0 12.8,2.44 17.68,7.32 9.76,9.76 9.76,25.59 0,35.36 -4.88,4.87 -11.28,7.32 -17.68,7.32 m 114.73,114.72 c -6.39,0 -12.79,-2.44 -17.68,-7.32 -9.76,-9.76 -9.76,-25.59 0,-35.35 4.89,-4.88 11.29,-7.32 17.68,-7.32 6.4,0 12.8,2.44 17.68,7.32 9.77,9.76 9.77,25.59 0,35.35 -4.88,4.88 -11.28,7.32 -17.68,7.32 m 114.73,114.73 c -6.4,0 -12.79,-2.44 -17.68,-7.32 -9.76,-9.76 -9.76,-25.6 0,-35.36 4.89,-4.88 11.28,-7.32 17.68,-7.32 6.4,0 12.8,2.44 17.68,7.32 9.76,9.76 9.76,25.6 0,35.36 -4.88,4.88 -11.28,7.32 -17.68,7.32 m 114.73,114.73 c -6.4,0 -12.8,-2.44 -17.68,-7.33 -9.76,-9.76 -9.76,-25.59 0,-35.35 4.88,-4.88 11.28,-7.32 17.68,-7.32 6.4,0 12.8,2.44 17.68,7.32 9.76,9.76 9.76,25.59 0,35.35 -4.88,4.89 -11.28,7.33 -17.68,7.33 m 114.73,114.73 c -6.4,0 -12.8,-2.45 -17.68,-7.32 -9.76,-9.77 -9.76,-25.6 0,-35.36 4.88,-4.88 11.28,-7.32 17.68,-7.32 6.4,0 12.79,2.44 17.68,7.32 9.76,9.76 9.76,25.59 0,35.36 -4.89,4.87 -11.28,7.32 -17.68,7.32 m 463.01,-971.66 c -41.88,69.81 -65.94,151.53 -65.94,239 0,87.47 24.06,169.19 65.94,239 v -478"
         id="path2012"
         inkscape:connector-curvature="0" />
    </clipPath>
    <clipPath
       clipPathUnits="userSpaceOnUse"
       id="clipPath1892">
      <path
         d="M 0,0 V 5000 H 5000 V 0 Z"
         id="path1890"
         inkscape:connector-curvature="0" />
    </clipPath>
    <clipPath
       clipPathUnits="userSpaceOnUse"
       id="clipPath1978">
      <path
         d="m 3076.12,3879.37 h -791.41 l 791.41,791.41 V 3879.37 M 1945.5,4245.4 c -55.66,0 -111.32,21.23 -153.78,63.7 -84.94,84.93 -84.94,222.64 0,307.57 L 2175.05,5000 h 615.15 l -690.91,-690.9 c -42.46,-42.47 -98.13,-63.7 -153.79,-63.7"
         id="path1976"
         inkscape:connector-curvature="0" />
    </clipPath>
    <clipPath
       clipPathUnits="userSpaceOnUse"
       id="clipPath2002">
      <path
         d="m 4130.17,3879.37 h -345.82 l 447.89,447.89 c 42.47,42.47 98.13,63.7 153.79,63.7 55.66,0 111.32,-21.23 153.78,-63.7 6.48,-6.47 12.46,-13.26 17.95,-20.3 l -427.59,-427.59 m -937.58,0 h -116.47 v 791.41 l 189.84,189.84 c 38.8,38.79 59.88,88.61 63.23,139.38 h 960.64 L 3239.82,3950 c -20.87,-20.88 -36.62,-44.95 -47.23,-70.63"
         id="path2000"
         inkscape:connector-curvature="0" />
    </clipPath>
    <clipPath
       clipPathUnits="userSpaceOnUse"
       id="clipPath2026-7">
      <path
         d="M 0,0 H 5000 V 5000 H 0 Z"
         id="path2024-5"
         inkscape:connector-curvature="0" />
    </clipPath>
    <clipPath
       clipPathUnits="userSpaceOnUse"
       id="clipPath2636">
      <path
         d="M 0,0 H 5000 V 5000 H 0 Z"
         id="path2634"
         inkscape:connector-curvature="0" />
    </clipPath>
    <clipPath
       clipPathUnits="userSpaceOnUse"
       id="clipPath2642">
      <path
         d="m 2905.83,-1106.17 v 0 c 84.94,-84.93 84.94,-222.64 0,-307.57 l -209.34,-209.35 c -84.93,-84.93 -84.93,-222.63 0,-307.57 84.94,-84.94 222.65,-84.94 307.58,0 L 5641.89,707.16 c 84.94,84.942 84.94,222.641 0,307.58 -84.93,84.94 -222.64,84.94 -307.57,0 L 4940.68,621.102 c -84.94,-84.942 -222.64,-84.942 -307.57,0 -84.94,84.937 -84.94,222.636 0,307.57 l 966.19,966.188 c 84.93,84.94 84.93,222.65 0,307.58 -84.94,84.94 -222.65,84.94 -307.58,0 L 1632.63,-1456.65 c -84.94,-84.93 -84.94,-222.65 0,-307.58 84.93,-84.93 222.63,-84.93 307.57,0 l 658.06,658.06 c 84.93,84.94 222.64,84.94 307.57,0 z"
         id="path2640"
         inkscape:connector-curvature="0" />
    </clipPath>
    <linearGradient
       x1="0"
       y1="0"
       x2="1"
       y2="0"
       gradientUnits="userSpaceOnUse"
       gradientTransform="matrix(2558.34,2558.34,2558.34,-2558.34,3270.2,-741.8)"
       spreadMethod="pad"
       id="linearGradient2648">
      <stop
         style="stop-opacity:1;stop-color:#332f8c"
         offset="0"
         id="stop2644" />
      <stop
         style="stop-opacity:1;stop-color:#714dab"
         offset="1"
         id="stop2646" />
    </linearGradient>
    <clipPath
       clipPathUnits="userSpaceOnUse"
       id="clipPath2026-2">
      <path
         d="M 0,0 H 5000 V 5000 H 0 Z"
         id="path2024-9"
         inkscape:connector-curvature="0" />
    </clipPath>
    <clipPath
       clipPathUnits="userSpaceOnUse"
       id="clipPath2026-2-0">
      <path
         d="M 0,0 H 5000 V 5000 H 0 Z"
         id="path2024-9-9"
         inkscape:connector-curvature="0" />
    </clipPath>
    <clipPath
       clipPathUnits="userSpaceOnUse"
       id="clipPath1544">
      <path
         d="m 11658.2,4056.26 c -6.6,0 -13,2.67 -17.7,7.33 -4.6,4.65 -7.3,11.09 -7.3,17.68 0,6.58 2.7,13.02 7.3,17.67 4.7,4.66 11.1,7.33 17.7,7.33 6.6,0 13,-2.67 17.7,-7.33 4.7,-4.65 7.3,-11.09 7.3,-17.67 0,-6.59 -2.6,-13.03 -7.3,-17.68 -4.7,-4.66 -11.1,-7.33 -17.7,-7.33"
         id="path1542"
         inkscape:connector-curvature="0" />
    </clipPath>
    <clipPath
       clipPathUnits="userSpaceOnUse"
       id="clipPath1532">
      <path
         d="m 11773,4170.99 c -6.4,0 -12.8,2.44 -17.7,7.32 -9.8,9.77 -9.8,25.6 0,35.36 4.9,4.88 11.3,7.32 17.7,7.32 6.4,0 12.7,-2.44 17.6,-7.32 9.8,-9.76 9.8,-25.59 0,-35.36 -4.9,-4.88 -11.2,-7.32 -17.6,-7.32 m 114.7,114.73 c -6.4,0 -12.8,2.44 -17.7,7.32 -9.8,9.76 -9.8,25.59 0,35.36 4.9,4.88 11.3,7.32 17.7,7.32 6.4,0 12.8,-2.44 17.7,-7.32 9.7,-9.77 9.7,-25.6 0,-35.36 -4.9,-4.88 -11.3,-7.32 -17.7,-7.32 m 114.7,114.73 c -6.4,0 -12.8,2.44 -17.7,7.32 -9.7,9.76 -9.7,25.59 0,35.36 4.9,4.87 11.3,7.32 17.7,7.32 6.4,0 12.8,-2.45 17.7,-7.32 9.7,-9.77 9.7,-25.6 0,-35.36 -4.9,-4.88 -11.3,-7.32 -17.7,-7.32 m 114.7,114.73 c -6.4,0 -12.8,2.44 -17.6,7.32 -9.8,9.76 -9.8,25.59 0,35.35 4.8,4.88 11.2,7.32 17.6,7.32 6.4,0 12.8,-2.44 17.7,-7.32 9.8,-9.76 9.8,-25.59 0,-35.35 -4.9,-4.88 -11.3,-7.32 -17.7,-7.32 m 114.8,114.72 c -6.4,0 -12.8,2.44 -17.7,7.32 -9.8,9.76 -9.8,25.6 0,35.36 4.9,4.88 11.3,7.32 17.7,7.32 6.4,0 12.8,-2.44 17.6,-7.32 9.8,-9.76 9.8,-25.6 0,-35.36 -4.8,-4.88 -11.2,-7.32 -17.6,-7.32 m 114.7,114.73 c -6.4,0 -12.8,2.44 -17.7,7.32 -9.8,9.76 -9.8,25.59 0,35.35 4.9,4.89 11.3,7.33 17.7,7.33 6.4,0 12.8,-2.44 17.7,-7.33 9.7,-9.76 9.7,-25.59 0,-35.35 -4.9,-4.88 -11.3,-7.32 -17.7,-7.32 m 114.7,114.73 c -6.4,0 -12.8,2.44 -17.7,7.32 -9.7,9.76 -9.7,25.59 0,35.36 4.9,4.87 11.3,7.32 17.7,7.32 6.4,0 12.8,-2.45 17.7,-7.32 9.8,-9.77 9.8,-25.6 0,-35.36 -4.9,-4.88 -11.3,-7.32 -17.7,-7.32 m 114.7,114.72 c -6.4,0 -12.8,2.44 -17.6,7.33 -5.1,5.11 -7.6,11.89 -7.3,18.59 h 49.9 c 0.3,-6.7 -2.2,-13.48 -7.3,-18.59 -4.9,-4.89 -11.3,-7.33 -17.7,-7.33"
         id="path1530"
         inkscape:connector-curvature="0" />
    </clipPath>
    <clipPath
       clipPathUnits="userSpaceOnUse"
       id="clipPath1004">
      <path
         d="m 13323.3,4041.72 c -74.6,0 -135,60.39 -135,134.98 0,74.6 60.4,134.98 135,134.98 74.6,0 135,-60.38 135,-134.98 v 0 0 0 c 0,-74.59 -60.4,-134.98 -135,-134.98 m 0,239.96 c -29.1,-0.01 -55.2,-11.72 -74.3,-30.73 -19,-19.03 -30.7,-45.18 -30.7,-74.25 0,-29.07 11.7,-55.21 30.7,-74.25 19.1,-19.01 45.2,-30.72 74.3,-30.73 29.1,0.01 55.2,11.72 74.3,30.73 19,19.04 30.7,45.18 30.7,74.25 0,29.07 -11.7,55.22 -30.7,74.25 -19.1,19.01 -45.2,30.72 -74.3,30.73"
         id="path1002"
         inkscape:connector-curvature="0" />
    </clipPath>
    <linearGradient
       x1="0"
       y1="0"
       x2="1"
       y2="0"
       gradientUnits="userSpaceOnUse"
       gradientTransform="matrix(2735.98,2735.98,2735.98,-2735.98,11450,2677.27)"
       spreadMethod="pad"
       id="linearGradient1010">
      <stop
         style="stop-opacity:1;stop-color:#d575c1"
         offset="0"
         id="stop1006" />
      <stop
         style="stop-opacity:1;stop-color:#f6f466"
         offset="1"
         id="stop1008" />
    </linearGradient>
    <clipPath
       clipPathUnits="userSpaceOnUse"
       id="clipPath988">
      <path
         d="m 13323.3,3921.75 c -140.9,0 -255,114.04 -255,254.95 0,140.91 114.1,254.96 255,254.96 140.9,0 255,-114.05 255,-254.96 -0.1,-140.91 -114.1,-254.95 -255,-254.95 v 14.99 15 c 62.2,0.01 118.4,25.14 159.1,65.85 40.7,40.74 65.8,96.88 65.9,159.11 -0.1,62.23 -25.2,118.37 -65.9,159.1 -40.7,40.72 -96.9,65.84 -159.1,65.85 -62.2,-0.01 -118.4,-25.13 -159.1,-65.85 -40.7,-40.73 -65.9,-96.87 -65.9,-159.1 0,-62.23 25.2,-118.37 65.9,-159.11 40.7,-40.71 96.9,-65.84 159.1,-65.85 v -15 -14.99"
         id="path986"
         inkscape:connector-curvature="0" />
    </clipPath>
    <clipPath
       clipPathUnits="userSpaceOnUse"
       id="clipPath976">
      <path
         d="m 13607.9,3932.43 v 49.13 c 38.1,55.48 60.3,122.63 60.3,195.14 0,72.51 -22.2,139.67 -60.3,195.14 v 49.13 c 56.3,-65.59 90.3,-150.93 90.3,-244.27 v 0 0 0 c 0,-93.34 -34,-178.68 -90.3,-244.27"
         id="path974"
         inkscape:connector-curvature="0" />
    </clipPath>
    <clipPath
       clipPathUnits="userSpaceOnUse"
       id="clipPath960">
      <path
         d="m 13323.3,3801.76 c -207.2,0 -374.9,167.71 -374.9,374.94 0,207.23 167.7,374.94 374.9,374.94 113.9,0 215.8,-50.64 284.6,-130.67 v -49.13 c -12.1,17.51 -25.7,33.85 -40.6,48.83 -62.5,62.42 -148.6,100.96 -244,100.97 -95.4,-0.01 -181.5,-38.55 -244,-100.97 -62.4,-62.45 -100.9,-148.58 -100.9,-243.97 0,-95.39 38.5,-181.52 100.9,-243.97 62.5,-62.42 148.6,-100.96 244,-100.97 95.4,0.01 181.5,38.55 244,100.97 14.9,14.98 28.5,31.32 40.6,48.83 v -49.13 c -68.8,-80.03 -170.7,-130.67 -284.6,-130.67"
         id="path958"
         inkscape:connector-curvature="0" />
    </clipPath>
    <clipPath
       clipPathUnits="userSpaceOnUse"
       id="clipPath948">
      <path
         d="m 13607.9,3771.6 v 37.28 c 15.5,12.06 30.3,25.09 44.2,39 84.2,84.15 136.1,200.27 136.1,328.82 0,128.55 -51.9,244.68 -136.1,328.82 -13.9,13.91 -28.7,26.94 -44.2,39 v 37.28 c 127.2,-89.51 210.3,-237.51 210.3,-405.1 0,-167.59 -83.1,-315.59 -210.3,-405.1"
         id="path946"
         inkscape:connector-curvature="0" />
    </clipPath>
    <clipPath
       clipPathUnits="userSpaceOnUse"
       id="clipPath936">
      <path
         d="m 12924.3,3883.62 c -60.3,82.01 -95.9,183.35 -95.9,293.08 0,109.72 35.6,211.07 95.9,293.08 v -54.08 c -41.9,-69.81 -65.9,-151.53 -65.9,-239 0,-87.47 24,-169.19 65.9,-239 v -54.08"
         id="path934"
         inkscape:connector-curvature="0" />
    </clipPath>
    <clipPath
       clipPathUnits="userSpaceOnUse"
       id="clipPath920">
      <path
         d="m 13323.3,3681.79 c -163.8,0 -308.9,79.38 -399,201.83 v 54.08 c 19.7,-32.78 43.3,-62.93 70.2,-89.82 84.1,-84.13 200.3,-136.08 328.8,-136.09 v -15 -15 m 0,0 v 15 15 c 107.3,0.01 205.9,36.21 284.6,97.09 v -37.28 c -80.5,-56.59 -178.6,-89.81 -284.6,-89.81 m -399,733.91 v 54.08 c 90.1,122.45 235.2,201.83 399,201.83 106,0 204.1,-33.22 284.6,-89.81 v -37.28 c -78.7,60.88 -177.3,97.09 -284.6,97.09 -128.5,0 -244.7,-51.96 -328.8,-136.09 -26.9,-26.88 -50.5,-57.04 -70.2,-89.82"
         id="path918"
         inkscape:connector-curvature="0" />
    </clipPath>
    <clipPath
       clipPathUnits="userSpaceOnUse"
       id="clipPath232">
      <path
         d="m 6695,0 h 7500 V 5000 H 6695 Z"
         id="path230"
         inkscape:connector-curvature="0" />
    </clipPath>
  </defs>
  <sodipodi:namedview
     id="base"
     pagecolor="#ffffff"
     bordercolor="#666666"
     borderopacity="1.0"
     inkscape:pageopacity="0.0"
     inkscape:pageshadow="2"
     inkscape:zoom="0.45"
     inkscape:cx="455.5013"
     inkscape:cy="58.101386"
     inkscape:document-units="mm"
     inkscape:current-layer="layer1"
     showgrid="false"
     inkscape:window-width="1366"
     inkscape:window-height="676"
     inkscape:window-x="0"
     inkscape:window-y="27"
     inkscape:window-maximized="1"
     fit-margin-top="0"
     fit-margin-left="0"
     fit-margin-right="0"
     fit-margin-bottom="0"
     inkscape:measure-start="0,0"
     inkscape:measure-end="0,0">
    <inkscape:grid
       type="xygrid"
       id="grid9256"
       originx="26.458333"
       originy="-196.92559" />
  </sodipodi:namedview>
  <metadata
     id="metadata8647">
    <rdf:RDF>
      <cc:Work
         rdf:about="">
        <dc:format>image/svg+xml</dc:format>
        <dc:type
           rdf:resource="http://purl.org/dc/dcmitype/StillImage" />
        <dc:title />
      </cc:Work>
    </rdf:RDF>
  </metadata>
  <g
     inkscape:label="Layer 1"
     inkscape:groupmode="layer"
     id="layer1"
     transform="translate(26.458333,-13.895833)">
    <path
       sodipodi:type="star"
       style="opacity:0.193;fill:#110e5f;fill-opacity:1;fill-rule:nonzero;stroke:#110e5f;stroke-width:0.27331457;stroke-miterlimit:4;stroke-dasharray:none;stroke-dashoffset:0;stroke-opacity:1"
       id="path901"
       sodipodi:sides="5"
       sodipodi:cx="0.33920935"
       sodipodi:cy="19.003359"
       sodipodi:r1="4.3439994"
       sodipodi:r2="2.1719997"
       sodipodi:arg1="-0.89605538"
       sodipodi:arg2="-0.26773685"
       inkscape:flatsided="false"
       inkscape:rounded="0"
       inkscape:randomized="0"
       d="m 3.0528843,15.611265 -0.6190591,2.817492 1.9700286,2.107245 -2.8708939,0.281893 -1.39533708,2.524783 -1.15525092,-2.643272 -2.8323943,-0.546844 2.1569095,-1.915525 -0.3551788,-2.862751 2.48829431,1.459413 z"
       inkscape:transform-center-x="0.062294001"
       inkscape:transform-center-y="0.35512333" />
    <path
       sodipodi:type="star"
       style="opacity:0.193;fill:#110e5f;fill-opacity:1;fill-rule:nonzero;stroke:#110e5f;stroke-width:0.27331457;stroke-miterlimit:4;stroke-dasharray:none;stroke-dashoffset:0;stroke-opacity:1"
       id="path905"
       sodipodi:sides="5"
       sodipodi:cx="62.753742"
       sodipodi:cy="23.41308"
       sodipodi:r1="6.5159998"
       sodipodi:r2="3.2579997"
       sodipodi:arg1="0.67474094"
       sodipodi:arg2="1.3030595"
       inkscape:flatsided="false"
       inkscape:rounded="0"
       inkscape:randomized="0"
       d="m 67.841883,27.483593 -4.226238,-0.928589 -3.160868,2.955044 -0.42284,-4.306342 -3.787175,-2.093006 3.96491,-1.732876 0.820265,-4.248592 2.873288,3.235365 4.294127,-0.532769 -2.18912,3.732442 z"
       inkscape:transform-center-x="0.53268621"
       inkscape:transform-center-y="-0.093440614" />
    <path
       sodipodi:type="star"
       style="opacity:0.193;fill:#110e5f;fill-opacity:1;fill-rule:nonzero;stroke:#110e5f;stroke-width:0.27331457;stroke-miterlimit:4;stroke-dasharray:none;stroke-dashoffset:0;stroke-opacity:1"
       id="path907"
       sodipodi:sides="5"
       sodipodi:cx="-14.246795"
       sodipodi:cy="65.475044"
       sodipodi:r1="5.3633718"
       sodipodi:r2="2.6816857"
       sodipodi:arg1="0.60554466"
       sodipodi:arg2="1.2338632"
       inkscape:flatsided="false"
       inkscape:rounded="0"
       inkscape:randomized="0"
       d="m -9.8370722,68.527929 -3.5231728,-0.521982 -2.427336,2.606386 -0.592286,-3.512038 -3.228909,-1.503117 3.15712,-1.648576 0.431762,-3.535363 2.543493,2.493161 3.4957514,-0.681858 -1.5851544,3.189435 z"
       inkscape:transform-center-x="0.47612943"
       inkscape:transform-center-y="0.037740879" />
    <path
       sodipodi:type="star"
       style="opacity:0.193;fill:#110e5f;fill-opacity:1;fill-rule:nonzero;stroke:#110e5f;stroke-width:0.27331457;stroke-miterlimit:4;stroke-dasharray:none;stroke-dashoffset:0;stroke-opacity:1"
       id="path911"
       sodipodi:sides="5"
       sodipodi:cx="35.9562"
       sodipodi:cy="60.386906"
       sodipodi:r1="6.5248232"
       sodipodi:r2="3.2624114"
       sodipodi:arg1="0.15660188"
       sodipodi:arg2="0.78492041"
       inkscape:flatsided="false"
       inkscape:rounded="0"
       inkscape:randomized="0"
       d="m 42.401178,61.404534 -4.137003,1.288142 -1.284189,4.138233 -2.503501,-3.536466 -4.33253,0.05745 2.589756,-3.473799 -1.393462,-4.102728 4.104058,1.38954 3.471323,-2.593073 -0.05331,4.332582 z"
       inkscape:transform-center-x="-0.31636648"
       inkscape:transform-center-y="0.31446382" />
    <path
       sodipodi:type="star"
       style="opacity:0.193;fill:#110e5f;fill-opacity:1;fill-rule:nonzero;stroke:#110e5f;stroke-width:0.27331457;stroke-miterlimit:4;stroke-dasharray:none;stroke-dashoffset:0;stroke-opacity:1"
       id="path913"
       sodipodi:sides="5"
       sodipodi:cx="81.749466"
       sodipodi:cy="39.355923"
       sodipodi:r1="6.1057692"
       sodipodi:r2="3.0528846"
       sodipodi:arg1="1.5707963"
       sodipodi:arg2="2.1991149"
       inkscape:flatsided="false"
       inkscape:rounded="0"
       inkscape:randomized="0"
       d="m 81.749466,45.461692 -1.794441,-3.635934 -4.012491,-0.583049 2.903466,-2.83018 -0.685415,-3.996277 3.588881,1.886786 3.588881,-1.886786 -0.685415,3.996278 2.903466,2.830179 -4.012492,0.583049 z"
       inkscape:transform-center-x="1.3632479e-06"
       inkscape:transform-center-y="0.58304876" />
    <path
       sodipodi:type="star"
       style="opacity:0.193;fill:#110e5f;fill-opacity:1;fill-rule:nonzero;stroke:#110e5f;stroke-width:0.27331457;stroke-miterlimit:4;stroke-dasharray:none;stroke-dashoffset:0;stroke-opacity:1"
       id="path915"
       sodipodi:sides="5"
       sodipodi:cx="64.449791"
       sodipodi:cy="82.435516"
       sodipodi:r1="4.3439994"
       sodipodi:r2="2.1719997"
       sodipodi:arg1="0.67474094"
       sodipodi:arg2="1.3030595"
       inkscape:flatsided="false"
       inkscape:rounded="0"
       inkscape:randomized="0"
       d="m 67.841885,85.149191 -2.817492,-0.619059 -2.107246,1.970029 -0.281892,-2.870894 -2.524784,-1.395337 2.643273,-1.155251 0.546844,-2.832394 1.915525,2.156909 2.862751,-0.355179 -1.459413,2.488295 z"
       inkscape:transform-center-x="0.35512454"
       inkscape:transform-center-y="-0.062294527" />
    <path
       sodipodi:type="star"
       style="opacity:0.193;fill:#110e5f;fill-opacity:1;fill-rule:nonzero;stroke:#110e5f;stroke-width:0.27331457;stroke-miterlimit:4;stroke-dasharray:none;stroke-dashoffset:0;stroke-opacity:1"
       id="path917"
       sodipodi:sides="5"
       sodipodi:cx="26.797541"
       sodipodi:cy="93.968636"
       sodipodi:r1="4.7124476"
       sodipodi:r2="2.3562236"
       sodipodi:arg1="0.52807445"
       sodipodi:arg2="1.156393"
       inkscape:flatsided="false"
       inkscape:rounded="0"
       inkscape:randomized="0"
       d="m 30.868054,96.343101 -3.121794,-0.21768 -1.949113,2.448253 -0.757661,-3.03627 -2.930735,-1.097164 2.653533,-1.658837 0.137819,-3.126338 2.397634,2.011052 3.015913,-0.835019 -1.171715,2.901736 z"
       inkscape:transform-center-x="0.30913928"
       inkscape:transform-center-y="0.14573271" />
    <path
       sodipodi:type="star"
       style="opacity:0.193;fill:#110e5f;fill-opacity:1;fill-rule:nonzero;stroke:#110e5f;stroke-width:0.27331457;stroke-miterlimit:4;stroke-dasharray:none;stroke-dashoffset:0;stroke-opacity:1"
       id="path919"
       sodipodi:sides="5"
       sodipodi:cx="123.81143"
       sodipodi:cy="41.730389"
       sodipodi:r1="1.9188581"
       sodipodi:r2="0.95942903"
       sodipodi:arg1="0.78539816"
       sodipodi:arg2="1.4137167"
       inkscape:flatsided="false"
       inkscape:rounded="0"
       inkscape:randomized="0"
       d="m 125.16827,43.087226 -1.20675,-0.40922 -1.02123,0.762098 0.0163,-1.274144 -1.04037,-0.735747 1.21681,-0.378243 0.37825,-1.216815 0.73574,1.040376 1.27415,-0.01629 -0.7621,1.021231 z"
       inkscape:transform-center-x="0.092761239"
       inkscape:transform-center-y="-0.092759696" />
    <path
       sodipodi:type="star"
       style="opacity:0.193;fill:#110e5f;fill-opacity:1;fill-rule:nonzero;stroke:#110e5f;stroke-width:0.27331457;stroke-miterlimit:4;stroke-dasharray:none;stroke-dashoffset:0;stroke-opacity:1"
       id="path921"
       sodipodi:sides="5"
       sodipodi:cx="154.34027"
       sodipodi:cy="27.822803"
       sodipodi:r1="5.3633718"
       sodipodi:r2="2.6816857"
       sodipodi:arg1="1.2490458"
       sodipodi:arg2="1.8773643"
       inkscape:flatsided="false"
       inkscape:rounded="0"
       inkscape:randomized="0"
       d="m 156.03632,32.910945 -2.50535,-2.53149 -3.5057,0.628707 1.63339,-3.165001 -1.68125,-3.139839 3.51484,0.575411 2.46662,-2.569234 0.5389,3.520625 3.20572,1.551965 -3.18179,1.600455 z"
       inkscape:transform-center-x="-0.50017368"
       inkscape:transform-center-y="-0.012581652" />
    <path
       sodipodi:type="star"
       style="opacity:0.193;fill:#110e5f;fill-opacity:1;fill-rule:nonzero;stroke:#110e5f;stroke-width:0.27331457;stroke-miterlimit:4;stroke-dasharray:none;stroke-dashoffset:0;stroke-opacity:1"
       id="path923"
       sodipodi:sides="5"
       sodipodi:cx="120.75855"
       sodipodi:cy="73.616074"
       sodipodi:r1="2.7971926"
       sodipodi:r2="1.398596"
       sodipodi:arg1="1.3258177"
       sodipodi:arg2="1.9541362"
       inkscape:flatsided="false"
       inkscape:rounded="0"
       inkscape:randomized="0"
       d="m 121.43697,76.329749 -1.20152,-1.416589 -1.84811,0.1867 0.97596,-1.580465 -0.74866,-1.699966 1.8047,0.439807 1.38542,-1.237336 0.1394,1.852281 1.60489,0.93525 -1.71854,0.704965 z"
       inkscape:transform-center-x="-0.20964109"
       inkscape:transform-center-y="0.059749888" />
    <path
       sodipodi:type="star"
       style="opacity:0.193;fill:#110e5f;fill-opacity:1;fill-rule:nonzero;stroke:#110e5f;stroke-width:0.27331457;stroke-miterlimit:4;stroke-dasharray:none;stroke-dashoffset:0;stroke-opacity:1"
       id="path925"
       sodipodi:sides="5"
       sodipodi:cx="148.91292"
       sodipodi:cy="77.686584"
       sodipodi:r1="2.6493101"
       sodipodi:r2="1.3246551"
       sodipodi:arg1="0.87605805"
       sodipodi:arg2="1.5043766"
       inkscape:flatsided="false"
       inkscape:rounded="0"
       inkscape:randomized="0"
       d="m 150.60897,79.721841 -1.60813,-0.713522 -1.49946,0.920231 0.18166,-1.749912 -1.33855,-1.141699 1.7204,-0.367983 0.67219,-1.62584 0.88161,1.522486 1.75398,0.136875 -1.17554,1.30893 z"
       inkscape:transform-center-x="0.054338877"
       inkscape:transform-center-y="-0.20075234" />
    <path
       sodipodi:type="star"
       style="opacity:0.193;fill:#110e5f;fill-opacity:1;fill-rule:nonzero;stroke:#110e5f;stroke-width:0.27331457;stroke-miterlimit:4;stroke-dasharray:none;stroke-dashoffset:0;stroke-opacity:1"
       id="path927"
       sodipodi:sides="5"
       sodipodi:cx="167.23022"
       sodipodi:cy="43.426437"
       sodipodi:r1="5.8556623"
       sodipodi:r2="2.9278309"
       sodipodi:arg1="1.3961241"
       sodipodi:arg2="2.0244427"
       inkscape:flatsided="false"
       inkscape:rounded="0"
       inkscape:randomized="0"
       d="m 168.24785,49.192997 -2.30074,-3.134864 -3.88675,0.118092 2.27047,-3.156859 -1.31338,-3.660027 3.70396,1.183819 3.07503,-2.380113 0.0187,3.888499 3.21386,2.189036 -3.6924,1.219406 z"
       inkscape:transform-center-x="-0.31446197"
       inkscape:transform-center-y="0.25158367" />
    <path
       sodipodi:type="star"
       style="opacity:0.193;fill:#110e5f;fill-opacity:1;fill-rule:nonzero;stroke:#110e5f;stroke-width:0.27331457;stroke-miterlimit:4;stroke-dasharray:none;stroke-dashoffset:0;stroke-opacity:1"
       id="path929"
       sodipodi:sides="5"
       sodipodi:cx="179.78098"
       sodipodi:cy="64.11821"
       sodipodi:r1="2.4694817"
       sodipodi:r2="1.2347409"
       sodipodi:arg1="1.2924967"
       sodipodi:arg2="1.9208152"
       inkscape:flatsided="false"
       inkscape:rounded="0"
       inkscape:randomized="0"
       d="m 180.45939,66.492676 -1.10183,-1.214592 -1.62519,0.219091 0.81466,-1.423233 -0.71058,-1.477951 1.60532,0.334986 1.18603,-1.132515 0.17748,1.630265 1.44359,0.778019 -1.49563,0.672573 z"
       inkscape:transform-center-x="-0.20964034"
       inkscape:transform-center-y="0.027358392" />
    <path
       sodipodi:type="star"
       style="opacity:0.193;fill:#110e5f;fill-opacity:1;fill-rule:nonzero;stroke:#110e5f;stroke-width:0.27331457;stroke-miterlimit:4;stroke-dasharray:none;stroke-dashoffset:0;stroke-opacity:1"
       id="path931"
       sodipodi:sides="5"
       sodipodi:cx="179.78098"
       sodipodi:cy="84.131561"
       sodipodi:r1="5.5219288"
       sodipodi:r2="2.7609644"
       sodipodi:arg1="0.82884906"
       sodipodi:arg2="1.4571676"
       inkscape:flatsided="false"
       inkscape:rounded="0"
       inkscape:randomized="0"
       d="m 183.51228,88.202074 -3.41825,-1.327353 -3.03131,2.063378 0.20609,-3.661126 -2.89911,-2.245321 3.54562,-0.935347 1.23955,-3.451063 1.98523,3.08305 3.6652,0.112447 -2.31869,2.840777 z"
       inkscape:transform-center-x="0.19347828"
       inkscape:transform-center-y="-0.33989144" />
    <path
       sodipodi:type="star"
       style="opacity:0.193;fill:#110e5f;fill-opacity:1;fill-rule:nonzero;stroke:#110e5f;stroke-width:0.27331457;stroke-miterlimit:4;stroke-dasharray:none;stroke-dashoffset:0;stroke-opacity:1"
       id="path933"
       sodipodi:sides="5"
       sodipodi:cx="101.76282"
       sodipodi:cy="92.611794"
       sodipodi:r1="5.4695873"
       sodipodi:r2="2.7347937"
       sodipodi:arg1="0.51914611"
       sodipodi:arg2="1.1474646"
       inkscape:flatsided="false"
       inkscape:rounded="0"
       inkscape:randomized="0"
       d="m 106.51175,95.325469 -3.62548,-0.220295 -2.23681,2.861694 -0.910822,-3.516109 -3.412845,-1.243023 3.062558,-1.95278 0.127558,-3.629924 2.803591,2.309224 3.49168,-1.000393 -1.32985,3.379959 z"
       inkscape:transform-center-x="0.34404813"
       inkscape:transform-center-y="0.1841554" />
    <path
       sodipodi:type="star"
       style="opacity:0.193;fill:#110e5f;fill-opacity:1;fill-rule:nonzero;stroke:#110e5f;stroke-width:0.27331457;stroke-miterlimit:4;stroke-dasharray:none;stroke-dashoffset:0;stroke-opacity:1"
       id="path937"
       sodipodi:sides="5"
       sodipodi:cx="-1.017628"
       sodipodi:cy="40.373554"
       sodipodi:r1="2.446074"
       sodipodi:r2="1.2230368"
       sodipodi:arg1="0.98279372"
       sodipodi:arg2="1.6111123"
       inkscape:flatsided="false"
       inkscape:rounded="0"
       inkscape:randomized="0"
       d="m 0.33920978,42.408811 -1.40613228,-0.813214 -1.4670636,0.697315 0.3388934,-1.588608 -1.1165339,-1.179778 1.61558,-0.1686 0.77700767,-1.426458 0.65958994,1.484407 1.59675099,0.298179 -1.2079309,1.086014 z"
       inkscape:transform-center-x="-0.030465362"
       inkscape:transform-center-y="-0.20441521" />
    <path
       sodipodi:type="star"
       style="opacity:0.193;fill:#110e5f;fill-opacity:1;fill-rule:nonzero;stroke:#110e5f;stroke-width:0.27331457;stroke-miterlimit:4;stroke-dasharray:none;stroke-dashoffset:0;stroke-opacity:1"
       id="path939"
       sodipodi:sides="5"
       sodipodi:cx="18.317308"
       sodipodi:cy="33.928574"
       sodipodi:r1="1.398596"
       sodipodi:r2="0.69929808"
       sodipodi:arg1="0.24497866"
       sodipodi:arg2="0.87329719"
       inkscape:flatsided="false"
       inkscape:rounded="0"
       inkscape:randomized="0"
       d="m 19.674146,34.267783 -0.907676,0.196768 -0.352483,0.859273 -0.467625,-0.802447 -0.92614,-0.0697 0.618668,-0.692708 -0.219904,-0.902351 0.849983,0.37433 0.790233,-0.487982 -0.09335,0.924056 z"
       inkscape:transform-center-x="-0.029874756"
       inkscape:transform-center-y="0.10482122" />
    <path
       sodipodi:type="star"
       style="opacity:0.193;fill:#110e5f;fill-opacity:1;fill-rule:nonzero;stroke:#110e5f;stroke-width:0.27331457;stroke-miterlimit:4;stroke-dasharray:none;stroke-dashoffset:0;stroke-opacity:1"
       id="path941"
       sodipodi:sides="5"
       sodipodi:cx="12.21154"
       sodipodi:cy="56.316395"
       sodipodi:r1="1.6960469"
       sodipodi:r2="0.84802347"
       sodipodi:arg1="0.64350111"
       sodipodi:arg2="1.2718196"
       inkscape:flatsided="false"
       inkscape:rounded="0"
       inkscape:randomized="0"
       d="m 13.568378,57.334023 -1.107059,-0.207224 -0.798315,0.794489 -0.145018,-1.116911 -1.002297,-0.513732 1.017432,-0.483064 0.178861,-1.111994 0.773826,0.818361 1.11284,-0.173518 -0.539182,0.988839 z"
       inkscape:transform-center-x="0.15437235"
       inkscape:transform-center-y="-0.0079575295" />
    <path
       sodipodi:type="star"
       style="opacity:0.193;fill:#110e5f;fill-opacity:1;fill-rule:nonzero;stroke:#110e5f;stroke-width:0.27331457;stroke-miterlimit:4;stroke-dasharray:none;stroke-dashoffset:0;stroke-opacity:1"
       id="path943"
       sodipodi:sides="5"
       sodipodi:cx="-21.709402"
       sodipodi:cy="19.342569"
       sodipodi:r1="1.9779137"
       sodipodi:r2="0.98895681"
       sodipodi:arg1="0.5404195"
       sodipodi:arg2="1.168738"
       inkscape:flatsided="false"
       inkscape:rounded="0"
       inkscape:randomized="0"
       d="m -20.013355,20.360198 -1.309055,-0.107534 -0.830707,1.017406 -0.30225,-1.278215 -1.224313,-0.475653 1.122254,-0.682447 0.07404,-1.311376 0.995841,0.85644 1.270072,-0.334822 -0.50679,1.211756 z"
       inkscape:transform-center-x="0.13711541"
       inkscape:transform-center-y="0.053655451" />
    <path
       sodipodi:type="star"
       style="opacity:0.193;fill:#110e5f;fill-opacity:1;fill-rule:nonzero;stroke:#110e5f;stroke-width:0.27331457;stroke-miterlimit:4;stroke-dasharray:none;stroke-dashoffset:0;stroke-opacity:1"
       id="path945"
       sodipodi:sides="5"
       sodipodi:cx="194.70621"
       sodipodi:cy="17.985731"
       sodipodi:r1="2.446074"
       sodipodi:r2="1.2230368"
       sodipodi:arg1="0.5880026"
       sodipodi:arg2="1.2163211"
       inkscape:flatsided="false"
       inkscape:rounded="0"
       inkscape:randomized="0"
       d="m 196.74146,19.342569 -1.61074,-0.209839 -1.08601,1.207931 -0.29818,-1.596751 -1.48441,-0.65959 1.42646,-0.777008 0.1686,-1.615579 1.17978,1.116533 1.58861,-0.338893 -0.69732,1.467064 z"
       inkscape:transform-center-x="0.20441766"
       inkscape:transform-center-y="0.030465631" />
  </g>
</svg>
